<svg width="400" height="400" viewBox="0 0 400 400" fill="none" xmlns="http://www.w3.org/2000/svg">
<rect width="400" height="400" rx="200" fill="white"/>
<path d="M148.92 288.2C137.4 288.2 126.68 286.04 116.76 281.72C106.84 277.24 98.12 271.08 90.6 263.24C83.08 255.4 77.16 246.36 72.84 236.12C68.68 225.88 66.6 215 66.6 203.48C66.6 191.64 68.68 180.6 72.84 170.36C77.16 159.96 83.08 150.84 90.6 143C98.12 135 106.84 128.76 116.76 124.28C126.84 119.64 137.56 117.32 148.92 117.32C160.44 117.32 171.16 119.56 181.08 124.04C191 128.52 199.64 134.76 207 142.76C214.52 150.6 220.36 159.72 224.52 170.12C228.84 180.52 231 191.64 231 203.48C231 214.84 229 225.4 225 235.16C221.16 244.92 215.8 253.64 208.92 261.32C211.96 263.08 215.08 264.28 218.28 264.92C221.64 265.4 225.32 265.48 229.32 265.16V288.92C221.48 289.08 215 288.92 209.88 288.44C204.76 288.12 200.44 287.24 196.92 285.8C193.4 284.36 190.04 282.04 186.84 278.84C175 285.08 162.36 288.2 148.92 288.2ZM148.92 263C157.56 263 165.72 260.92 173.4 256.76C171.48 252.44 169.48 249.16 167.4 246.92C165.32 244.52 162.68 242.6 159.48 241.16C156.44 239.72 152.28 238.28 147 236.84V209.48C157.72 211.24 167.16 214.28 175.32 218.6C183.64 222.92 189.96 229.08 194.28 237.08C197.32 232.44 199.72 227.24 201.48 221.48C203.4 215.72 204.36 209.72 204.36 203.48C204.36 192.6 201.88 182.6 196.92 173.48C191.96 164.2 185.32 156.76 177 151.16C168.68 145.56 159.32 142.76 148.92 142.76C138.36 142.76 128.84 145.64 120.36 151.4C112.04 157 105.4 164.44 100.44 173.72C95.64 183 93.24 192.92 93.24 203.48C93.24 213.88 95.72 223.64 100.68 232.76C105.64 241.72 112.28 249 120.6 254.6C128.92 260.2 138.36 263 148.92 263ZM331.476 287H252.756V119H278.196V262.04H331.476V287Z" fill="#252525"/>
</svg>
